<svg xmlns="http://www.w3.org/2000/svg" xmlns:xlink="http://www.w3.org/1999/xlink" viewBox="0 0 3000 1125">
  <defs>
    <style>
      .cls-1 {
        fill: #fff;
      }

      .cls-2 {
        clip-path: url(#clip-path);
      }

      .cls-3 {
        fill: url(#linear-gradient);
      }

      .cls-4 {
        opacity: 0.5;
        fill: url(#linear-gradient-2);
      }

      .cls-5 {
        fill: url(#linear-gradient-5);
      }

      .cls-6 {
        opacity: 0.3;
      }

      .cls-7 {
        fill: #b97262;
      }

      .cls-8 {
        fill: #8cabef;
      }

      .cls-9 {
        fill: #2c2872;
      }

      .cls-10 {
        fill: #292949;
      }

      .cls-11 {
        fill: #3b3387;
      }

      .cls-12 {
        fill: #e6e6e6;
      }

      .cls-13 {
        fill: #babcbe;
      }

      .cls-14 {
        fill: #efbfa5;
      }

      .cls-15 {
        fill: #474ebb;
      }

      .cls-16 {
        fill: #8366d0;
      }

      .cls-17 {
        fill: #eed5d5;
      }

      .cls-18 {
        fill: #2f3789;
      }

      .cls-19 {
        fill: #6c4cbf;
      }

      .cls-20 {
        fill: #efbbbb;
      }

      .cls-21 {
        fill: #19196c;
      }

      .cls-22 {
        fill: #3e45b2;
      }

      .cls-23, .cls-28, .cls-29, .cls-30, .cls-31 {
        fill: none;
        stroke: #fff;
      }

      .cls-23 {
        stroke-width: 4px;
        stroke-dasharray: 12;
      }

      .cls-24 {
        fill: #4f56c9;
      }

      .cls-25 {
        fill: #54a7db;
      }

      .cls-26 {
        fill: #d9647a;
      }

      .cls-27 {
        fill: #4a62e3;
      }

      .cls-28, .cls-31 {
        stroke-linecap: round;
      }

      .cls-28, .cls-29, .cls-30, .cls-31 {
        stroke-miterlimit: 10;
        stroke-width: 3px;
      }

      .cls-30, .cls-31 {
        stroke-linejoin: round;
      }
    </style>
    <clipPath id="clip-path">
      <rect id="Rectangle_324" data-name="Rectangle 324" class="cls-1" width="3000" height="1125"/>
    </clipPath>
    <linearGradient id="linear-gradient" x1="0.896" x2="0.072" y2="1" gradientUnits="objectBoundingBox">
      <stop offset="0" stop-color="#651374"/>
      <stop offset="1" stop-color="#021289"/>
    </linearGradient>
    <linearGradient id="linear-gradient-2" y1="0.5" x2="1" y2="0.5" gradientUnits="objectBoundingBox">
      <stop offset="0" stop-color="#76229b"/>
      <stop offset="1" stop-color="#021289"/>
    </linearGradient>
    <linearGradient id="linear-gradient-5" y1="0.5" x2="1" y2="0.5" gradientUnits="objectBoundingBox">
      <stop offset="0" stop-color="#811a9b"/>
      <stop offset="1" stop-color="#021289" stop-opacity="0"/>
    </linearGradient>
  </defs>
  <g id="Group_947" data-name="Group 947" transform="translate(0 -138)">
    <g id="Mask_Group_17" data-name="Mask Group 17" class="cls-2" transform="translate(0 138)">
      <g id="Group_926" data-name="Group 926" transform="translate(-16.081 -141.088)">
        <rect id="Rectangle_291" data-name="Rectangle 291" class="cls-3" width="3000" height="1124.209" transform="translate(16.081 141.879)"/>
        <rect id="Rectangle_292" data-name="Rectangle 292" class="cls-4" width="709.713" height="107.842" rx="53.921" transform="translate(1769.697 1023.107) rotate(150)"/>
        <rect id="Rectangle_293" data-name="Rectangle 293" class="cls-4" width="771.423" height="107.868" rx="53.934" transform="translate(816.604 132.515) rotate(150)"/>
        <rect id="Rectangle_294" data-name="Rectangle 294" class="cls-4" width="1019.846" height="107.972" rx="53.986" transform="translate(937.199 770.12) rotate(150)"/>
        <rect id="Rectangle_295" data-name="Rectangle 295" class="cls-5" width="674.111" height="107.827" rx="53.914" transform="translate(1669.265 93.381) rotate(150)"/>
      </g>
    </g>
    <g id="Group_927" data-name="Group 927" transform="translate(1846.058 324.906)">
      <g id="Group_862" data-name="Group 862" class="cls-6" transform="translate(22.263 622.671)">
        <path id="Path_947" data-name="Path 947" class="cls-1" d="M529.044,467.6c-23.807.109-47.724.652-71.531,3.258-9.023.977-17.72,3.15-26.743,4.127-17.937,1.738-35.657,5.1-53.7,6.625-14.567,1.195-29.134,1.955-43.593,3.475a156.012,156.012,0,0,1-42.071-1.3c-10-1.738-20-2.824-29.786-5.648-10.98-3.258-22.938-5.539-34.352-5.43-16.307.109-32.178.109-47.832,5.756-5.436,1.955-12.175,5.213-16.306,9.449-9.566,9.557-10.762,33.45-1.3,43.333,15.98,16.725,50.224,23.241,72.618,23.567,24.568.326,48.485-1.52,73.162-2.607,22.938-.978,45.658-2.389,68.6-2.389,46.854.109,93.6,0,140.344-3.15,43.919-2.932,87.946-1.955,131.974-1.955,45.115,0,89.9.326,134.692,6.408,19.568,2.606,39.353,3.584,59.029,5.322,17.611,1.629,34.461,0,51.963-1.521a126.6,126.6,0,0,0,42.614-11.4c10.545-5.1,29.352-20.743,32.613-32.8,9.132-33.885-128.06-33.016-149.041-32.907-23.59.109-47.289.869-70.77,0-9.893-.326-19.677-2.281-29.352-4.453-9.675-2.063-19.35-1.629-29.026-2.5-40.658-3.693-81.424-3.15-122.3-3.15C555.569,467.709,542.306,467.6,529.044,467.6Z" transform="translate(-155.309 -467.6)"/>
      </g>
      <g id="Group_863" data-name="Group 863" transform="translate(279.895 442.117)">
        <path id="Path_969" data-name="Path 969" class="cls-7" d="M530.866,360.633a4.677,4.677,0,0,1,.87-2.607,1.661,1.661,0,0,1,2.392-.435c1.63,1.629.87,1.738,3.044,1.3,3.153-.543,5.762-4.236,8.371-1.412,2.5,2.824.435,3.91-2.174,5.213-2.066.977-4.348,1.846-5.87,3.475-.978,1.086-4.022,5.973-4.022,7.385a1.6,1.6,0,0,1-.544.652,1.666,1.666,0,0,1-1.413-.217C526.191,370.516,530.213,365.737,530.866,360.633Z" transform="translate(-380.411 -296.611)"/>
        <path id="Path_970" data-name="Path 970" class="cls-8" d="M435.476,418.293c-4.783,8.363-10.654,16.725-11.958,26.282-.544,3.584-.217,7.6,2.283,10.1,2.5,2.606,6.414,3.041,9.893,3.258,5.435-15.422,10.762-30.735,16.2-46.157,2.718-7.6,5.327-15.2,8.045-22.807,2.065-5.756,7.392-15.1,6.957-21.069-7.175-.109-13.7,15.965-16.415,21.178C445.369,398.852,440.912,408.844,435.476,418.293Z" transform="translate(-389.6 -295.625)"/>
        <g id="Group_835" data-name="Group 835" transform="translate(14.956)">
          <path id="Path_971" data-name="Path 971" class="cls-9" d="M525.669,481.887c-.87-7.928-4.892-14.227-12.176-17.594-5.979-2.824-12.61-3.475-19.133-4.236-14.458-1.846-28.373-3.693-42.94-3.15-11.741.434-18.915,10.426-24.351,20.309-3.479,6.19-2.5,9.123,1.848,14.336a52.306,52.306,0,0,0,14.35,11.947c10.762,6.082,27.286,4.561,39.136,3.258a89.486,89.486,0,0,0,32.069-9.774C520.777,493.616,526.647,489.6,525.669,481.887Z" transform="translate(-404.411 -287.974)"/>
          <path id="Path_972" data-name="Path 972" class="cls-10" d="M451.323,502.535c-1.957,4.561-3.587,9.231-5.109,13.9a26.816,26.816,0,0,0-1.413,7.711c.217,6.082,7.066,10.535,11.523,4.887A32.433,32.433,0,0,0,461,520.781c1.631-4.344-1.848-1.846-4.783-3.149-3.37-1.521-3.261-2.715-1.848-5.865,1.848-4.018,4.022-6.733,3.7-11.295-.109-1.3-.435-2.824-1.631-3.258a2.607,2.607,0,0,0-2.718.652,7.36,7.36,0,0,0-1.522,2.5C451.975,501.015,451.649,501.775,451.323,502.535Z" transform="translate(-402.683 -284.513)"/>
          <g id="Group_834" data-name="Group 834">
            <g id="Group_830" data-name="Group 830" transform="translate(0 66.804)">
              <g id="Group_829" data-name="Group 829">
                <path id="Path_973" data-name="Path 973" class="cls-8" d="M485.289,363.772c5.544-.76,11.088-1.738,15.763.326,3.914,1.738,3.8,6.625,4.675,10.426a368.874,368.874,0,0,1,6.74,37.36c.761,5.973,2.174,12.49,2.174,18.463,0,4.887-1.2,9.557-.87,14.553.326,3.8,1.957,7.928,5.436,9.449,1.739.76,3.8.869,5.544,1.629s3.261,2.824,2.392,4.561a5.373,5.373,0,0,1-2.065,1.738c-4.348,2.389-8.7,4.887-13.045,7.277a74.037,74.037,0,0,1-10.219,5,52.931,52.931,0,0,1-15.872,2.715,130.208,130.208,0,0,1-41.419-4.561c-7.284-1.955-14.241-5.539-12.5-13.684,1.848-8.471,5.327-16.834,9.023-24.545,4.566-9.34,5.87-20.526,9.132-30.409,3.044-9.123,5.979-18.246,9.349-27.368a19.833,19.833,0,0,1,8.806-10.86C473.657,363.12,479.637,364.532,485.289,363.772Z" transform="translate(-403.82 -362.863)"/>
                <g id="Group_828" data-name="Group 828" transform="translate(0 93.794)">
                  <path id="Path_974" data-name="Path 974" class="cls-7" d="M494.394,505.049c1.3.109,2.5.109,3.8.217,1.413.109,2.935.109,3.914-.869,1.2-1.086,1.087-3.258.109-4.561a7.676,7.676,0,0,0-4.24-2.5,44.213,44.213,0,0,0-11.958-1.738,4.079,4.079,0,0,0-1.2.109c-.652.217-.978.978-1.2,1.629C481.349,504.288,489.5,504.831,494.394,505.049Z" transform="translate(-399.336 -445.234)"/>
                  <g id="Group_827" data-name="Group 827">
                    <path id="Path_975" data-name="Path 975" class="cls-7" d="M449.006,516.537a2.73,2.73,0,0,0,.109,1.629,3.31,3.31,0,0,0,.87.869c2.609,1.629,6.088-.109,8.045-2.5s3.37-5.322,5.87-7.059c5.762-4.018.544-11.295-5.544-9.557C451.289,501.876,449.767,510.347,449.006,516.537Z" transform="translate(-402.323 -444.885)"/>
                    <g id="Group_826" data-name="Group 826">
                      <path id="Path_976" data-name="Path 976" class="cls-11" d="M526.506,483.3c5-3.693,10-7.82,11.849-14.01s-.761-14.879-7.175-18.463c-7.827-4.344-15.545.977-21.2,6.082-11.523,10.317-24.025,19.44-36.2,28.889-4.131,3.15-18.481,14.879-18.481,14.879-.435,1.629,7.284,16.617,9.349,16.074C486.936,510.777,508.569,496.441,526.506,483.3Z" transform="translate(-401.77 -449.225)"/>
                      <path id="Path_977" data-name="Path 977" class="cls-11" d="M418.5,489.964c-4.892-2.389-9.784-5.213-11.741-10.969s.217-15.1,6.305-20.309c7.392-6.408,14.893-3.041,20.437.543,11.306,7.385,23.59,13.25,35.548,19.549,4.022,2.172,18.155,10.209,18.155,10.209.435,1.521-6.523,18.571-8.479,18.463C457.2,507.232,436,498.435,418.5,489.964Z" transform="translate(-406.058 -448.722)"/>
                    </g>
                  </g>
                </g>
                <path id="Path_978" data-name="Path 978" class="cls-10" d="M486.117,507.846c4.457,2.172,9.132,4.127,13.806,5.865a23.471,23.471,0,0,0,7.718,1.738c6.2.109,10.98-6.625,5.544-11.4a32.6,32.6,0,0,0-8.044-5.1c-4.348-1.846-1.957,1.738-3.37,4.561-1.739,3.258-2.935,3.15-5.979,1.521-4.022-2.064-6.523-4.344-11.306-4.344-1.3,0-2.826.326-3.37,1.52a2.553,2.553,0,0,0,.544,2.715,7.2,7.2,0,0,0,2.392,1.629A10.846,10.846,0,0,0,486.117,507.846Z" transform="translate(-399.538 -351.197)"/>
              </g>
            </g>
            <g id="Group_833" data-name="Group 833" transform="translate(20.638)">
              <g id="Group_832" data-name="Group 832" transform="translate(34.526 11.869)">
                <g id="Group_831" data-name="Group 831" transform="translate(0 11.473)">
                  <path id="Path_979" data-name="Path 979" class="cls-7" d="M474.737,374.383l.652.652a9.338,9.338,0,0,0,3.8,1.3,12.178,12.178,0,0,0,5.218.217c5.544-1.629,3.044-10.969,2.392-14.879,3.587-1.3,7.718-3.367,8.262-7.494a12.581,12.581,0,0,0-.326-4.018c-.978-5.43-1.957-10.969-2.826-16.4a15.722,15.722,0,0,0-1.631-5.43c-1.631-2.824-4.783-4.236-7.827-4.887-7.61-1.629-15.763,0-21.633,5.322a12.191,12.191,0,0,0-3.587,5.322c-.978,3.258-.109,6.951.761,10.317.761,3.15,1.631,6.3,2.392,9.449.87,3.584,2.283,7.711,5.327,9.231,1.631.76,3.587.652,5.109,1.738C474.3,367.107,472.671,371.886,474.737,374.383Z" transform="translate(-456.802 -322.844)"/>
                </g>
                <path id="Path_980" data-name="Path 980" class="cls-10" d="M483.462,330.113a6.023,6.023,0,0,1,.652.869c.978,1.52.87,3.584,1.848,5.1,1.413,2.5,4.892,3.475,5.979,6.191.87,2.172-.326,4.67.109,7.059.326,2.606,2.5,4.67,2.718,7.168A16.269,16.269,0,0,1,493.246,364c.326-.652,3.914-1.195,4.783-1.955,1.3-1.195,1.3-1.738,1.413-3.367s-.544-2.932-.109-4.67c.435-2.063,1.848-3.8,2.065-5.865.217-2.932-1.739-5.43-2.283-8.363-.652-4.344,2.174-9.123,0-12.924-1.3-2.281-3.914-3.258-5.653-5.213-1.3-1.412-2.065-3.258-3.153-5-1.087-1.629-2.609-3.15-4.566-3.367-1.087-.109-2.174.217-3.261.217-1.848,0-3.587-.869-5.544-1.195-2.718-.326-6.523,3.041-7.61,5.43-.978,2.389.109,4.018,1.957,5.539C474.439,326.095,480.744,326.963,483.462,330.113Z" transform="translate(-455.743 -312.28)"/>
              </g>
              <path id="Path_981" data-name="Path 981" class="cls-10" d="M447.757,324.887a47.841,47.841,0,0,0-4.022,4.127c-2.174,3.041-1.848,7.168-1.2,10.752.544,3.258-.217,6.408.761,9.774a8.689,8.689,0,0,0,4.24,5.322c2.609,1.195,6.305.76,7.936,3.15,1.739,2.607-.544,6.842,1.739,9.014,1.3,1.195,3.261.977,4.892,1.629,1.848.76,3.044,2.389,4.348,3.8s3.153,2.824,5,2.389c-.544-2.932-.87-5.213-2.609-7.6-.978-1.412-3.7-3.8-2.392-5.865.761-1.629,3.044-2.5,2.826-4.236-.109-.869-.87-1.412-1.413-1.955a9.892,9.892,0,0,1-2.5-8.906,12.888,12.888,0,0,1,5.109-7.928c2.935-2.281,2.283-2.932,2.609-6.3.326-3.041,1.848-4.127,4.24-5.756,2.174-1.412,2.826-2.172,3.261-4.561.326-1.738.652-3.8-.544-5.43a9.454,9.454,0,0,0-4.022-2.715c-3.044-1.521-6.523-3.041-9.784-2.172-1.848.543-3.37,1.738-5.218,2.172-1.2.326-2.5.326-3.8.543a9.983,9.983,0,0,0-5.762,3.041c-1.522,1.629-1.2,2.932-1.739,5A16.119,16.119,0,0,1,447.757,324.887Z" transform="translate(-423.561 -300.506)"/>
              <path id="Path_982" data-name="Path 982" class="cls-10" d="M458.153,312.373c-.109-2.063-.87-4.67-2.935-5-1.087-.109-2.283.434-3.37.434-2.392,0-3.8-2.715-5.436-4.453a2.616,2.616,0,0,0-.87-.652c-.544-.109-.978.217-1.522.326-2.283.76-4.457-1.195-6.849-1.629a5.533,5.533,0,0,0-6.2,4.887c-.109,1.195.217,2.389.109,3.693-.326,4.887-6.74,8.254-5.979,13.141.544,3.258,4.348,5.756,3.7,9.014-.435,2.064-2.609,3.91-1.957,5.865a2.877,2.877,0,0,0,3.37,1.629,6.422,6.422,0,0,0,3.261-2.389c1.3-1.738,2.174-3.8,3.37-5.539a7.73,7.73,0,0,1,5.218-3.584c2.066-.109,4.24,1.086,6.2.326,1.522-.652,2.5-2.281,4.022-3.041,1.413-.652,3.044-.434,4.675-.652,1.522-.217,3.261-1.412,3.044-2.932a3.856,3.856,0,0,1-.217-1.086c.109-1.086,1.848-1.3,1.957-2.389-1.087-1.086-2.065-.434-3.044-1.955C458.153,315.414,458.262,313.677,458.153,312.373Z" transform="translate(-425.042 -301.351)"/>
            </g>
          </g>
        </g>
        <g id="Group_836" data-name="Group 836" transform="translate(0 112.894)">
          <path id="Path_983" data-name="Path 983" class="cls-12" d="M396.6,469.764,459.217,447.5l78.489,1.086-43.593,21.178Z" transform="translate(-391.925 -401.669)"/>
          <path id="Path_984" data-name="Path 984" class="cls-13" d="M396.974,467.856,392.3,406.495l96.969-1.195,5.218,65.6Z" transform="translate(-392.3 -405.3)"/>
          <path id="Path_985" data-name="Path 985" class="cls-13" d="M536.392,448.41c-14.024,6.191-28.047,12.49-42.071,18.68l-.109.109v-3.041H396.7v5.43h96.534a1.407,1.407,0,0,0,2.065,1.086c14.024-6.191,28.047-12.49,42.071-18.68C539.327,451.234,538.458,447.542,536.392,448.41Z" transform="translate(-391.917 -401.602)"/>
        </g>
        <path id="Path_986" data-name="Path 986" class="cls-8" d="M515.226,391.541a181.7,181.7,0,0,1,10.436-17.811c1.2-1.738,3.587-6.951,5.653-7.6,2.283-.76,7.61,1.955,9.784,2.824a352.885,352.885,0,0,1-13.915,43.333,15.647,15.647,0,0,1-3.37,5.647c-3.37,3.15-8.914,2.5-12.719-.109-3.7-2.607-6.088-6.733-8.262-10.752-3.913-6.951-8.371-14.444-10.219-22.264-1.087-4.887-5.109-13.141-.544-17.268,4.566-4.018,8.479-.434,11.2,3.584q3.261,4.887,6.2,10.1C510.334,382.418,515.878,390.455,515.226,391.541Z" transform="translate(-383.796 -295.807)"/>
      </g>
      <g id="Group_842" data-name="Group 842" transform="translate(491.444 348.3)">
        <g id="Group_838" data-name="Group 838" transform="translate(20.077 26.155)">
          <path id="Path_987" data-name="Path 987" class="cls-10" d="M610.4,253.223a44.528,44.528,0,0,0,9.566,7.277,76.046,76.046,0,0,1-7.066-19.875,1.856,1.856,0,0,0-.761-1.412,1.614,1.614,0,0,0-1.413,0C602.033,241.494,605.4,248.336,610.4,253.223Z" transform="translate(-605.368 -239.05)"/>
        </g>
        <path id="Path_988" data-name="Path 988" class="cls-14" d="M635.374,263.329a20.879,20.879,0,0,0,1.413-1.846c5.218-8.8,5-41.6-18.481-37.252-21.307,3.91-7.61,29.106,1.413,38.012a15.238,15.238,0,0,0,6.414,4.127c.652.217.435,6.842,1.087,7.82a4.9,4.9,0,0,0,6.088,1.629,8.449,8.449,0,0,0,3.913-5.1C637.331,269.3,634.939,263.872,635.374,263.329Z" transform="translate(-585.15 -214.204)"/>
        <g id="Group_841" data-name="Group 841">
          <g id="Group_839" data-name="Group 839" transform="translate(41.568 4.053)">
            <path id="Path_989" data-name="Path 989" class="cls-10" d="M634.12,254.214c2.174,1.195,4.675-.76,6.088-2.606a23.783,23.783,0,0,0-.217-27.911c-5.109-6.625-17.176-7.494-14.458,2.5.978,3.584,5.109,7.059,6.414,10.861C633.793,242.485,633.9,248.566,634.12,254.214Z" transform="translate(-625.138 -218.699)"/>
          </g>
          <g id="Group_840" data-name="Group 840">
            <path id="Path_990" data-name="Path 990" class="cls-10" d="M596.684,225.32c-6.523,9.883-4.675,23.241-9.784,33.993a35.311,35.311,0,0,0,24.568-12.164c5.979-7.059,22.938-18.354,15-27.586C618.535,210.224,602.446,216.632,596.684,225.32Z" transform="translate(-586.9 -214.967)"/>
          </g>
        </g>
      </g>
      <g id="Group_846" data-name="Group 846" transform="translate(513.947 508.854)">
        <path id="Path_991" data-name="Path 991" class="cls-10" d="M638.2,507.9l-1.739,2.172-.761,2.281,5.218,7.82,4.892,1.846,5.544-.434s2.392-.869.978-2.715-5.218-2.824-5.218-2.824l.544-6.408Z" transform="translate(-605.153 -350.314)"/>
        <path id="Path_992" data-name="Path 992" class="cls-10" d="M619.466,508.553l-.652,3.91-3.914,6.625,1.739,2.172,6.523-.543,3.914-5.539V504.1l-7.392.76Z" transform="translate(-606.964 -350.641)"/>
        <g id="Group_845" data-name="Group 845">
          <g id="Group_843" data-name="Group 843" transform="translate(0 3.475)">
            <path id="Path_993" data-name="Path 993" class="cls-15" d="M611.4,366l-3.8,21.069,10.871,134.887,11.415-2.389,18.807-149.006Z" transform="translate(-607.6 -366)"/>
          </g>
          <g id="Group_844" data-name="Group 844" transform="translate(30.656)">
            <path id="Path_994" data-name="Path 994" class="cls-15" d="M668.522,363.452l2.174,86.992-22.068,74.937L635.8,520.6l10.762-66.9-9.893-90.9Z" transform="translate(-635.8 -362.8)"/>
          </g>
        </g>
      </g>
      <g id="Group_847" data-name="Group 847" transform="translate(506.212 399.146)">
        <path id="Path_995" data-name="Path 995" class="cls-16" d="M605.5,284.826c-2.066,4.453-2.392,9.449-3.153,14.879a244.372,244.372,0,0,0-1.848,28.129c-.109,10.969.326,21.83,1.2,32.8.435,5.43.979,10.86,1.522,16.291.326,2.824-.979,9.992,2.174,11.512,1.739.869,3.7.652,5.653.434,16.85-1.738,33.809-3.584,50.659-5.322,2.718-.326,5.544-.652,7.827-1.846,4.24-2.281,3.479-6.842,4.131-10.752a81.72,81.72,0,0,0,.978-15.422c-.217-10.535-1.848-21.069-2.609-31.6-.87-11.295-2.609-26.5-6.958-37.36a36.284,36.284,0,0,0-8.371-12.272c-4.675-4.344-8.914-5.43-15.219-6.625a2.017,2.017,0,0,1-.761-.217,2.27,2.27,0,0,1-.435-.652c-.435-1.195-.761-2.389-1.2-3.693a1.78,1.78,0,0,0-.761-1.195,2.1,2.1,0,0,0-1.413,0c-4.24.977-8.371,1.955-12.61,2.824a9.009,9.009,0,0,1,.326,2.932,2.728,2.728,0,0,1-1.739,2.281c-4.348,1.52-8.805,4.887-12.284,7.928A20.135,20.135,0,0,0,605.5,284.826Z" transform="translate(-600.485 -261.785)"/>
      </g>
      <g id="Group_850" data-name="Group 850" transform="translate(540.605 379.638)">
        <g id="Group_849" data-name="Group 849">
          <path id="Path_996" data-name="Path 996" class="cls-10" d="M685.04,354.466l-51.528-14.879a1.92,1.92,0,0,1-1.3-2.389l26.525-91.988a1.922,1.922,0,0,1,2.392-1.3l51.528,14.77a1.919,1.919,0,0,1,1.3,2.389l-26.525,92.1A1.971,1.971,0,0,1,685.04,354.466Z" transform="translate(-632.122 -243.822)"/>
        </g>
        <rect id="Rectangle_290" data-name="Rectangle 290" class="cls-17" width="48.895" height="80.578" transform="translate(29.716 5.732) rotate(16.052)"/>
        <path id="Path_997" data-name="Path 997" class="cls-1" d="M663.573,337.161l-10-2.932a1.331,1.331,0,0,1-.87-1.52l.544-1.738a1.333,1.333,0,0,1,1.522-.869l10,2.932a1.331,1.331,0,0,1,.87,1.52l-.543,1.738A1.16,1.16,0,0,1,663.573,337.161Z" transform="translate(-630.331 -236.4)"/>
      </g>
      <path id="Path_998" data-name="Path 998" class="cls-18" d="M696.574,334.5a4.593,4.593,0,0,1-4.783.869,6.071,6.071,0,0,1-2.5-2.932,30.3,30.3,0,0,1-2.174-5.973c-1.2-5.213,3.153-10.752,8.479-7.168C700.27,322.549,701.031,331.02,696.574,334.5Z" transform="translate(-86.744 142.211)"/>
      <path id="Path_999" data-name="Path 999" class="cls-14" d="M683.688,334.484c-1.3-.434-2.826-1.195-3.37-2.606a9.053,9.053,0,0,1,.326-5.1c.543-1.52,2.065-1.195,3.261-.869a6.156,6.156,0,0,0,3.37.543c-.109-1.52-1.739-1.955-1.848-3.367a3.509,3.509,0,0,1,.326-1.846c.109-.217.217-.434.326-.434a.4.4,0,0,1,.326.109c2.718,1.412,5.544.977,8.045,3.15a5.287,5.287,0,0,1,.217,8.145c-2.609,2.715-7.066,3.367-10.436,2.5C684.015,334.593,683.906,334.593,683.688,334.484Z" transform="translate(-87.339 142.44)"/>
      <path id="Path_1000" data-name="Path 1000" class="cls-14" d="M644.562,343.9c1.631,1.086,3.479,1.955,5.327,2.932a5.463,5.463,0,0,0,1.413.543,4.79,4.79,0,0,0,1.739-.217c.87-.217,1.739-.434,2.5-.652a3.656,3.656,0,0,0,1.522-.543c1.2-.76,1.631-2.172,2.066-3.584a2.39,2.39,0,0,0,.109-.869,1.32,1.32,0,0,0-1.087-.869c-1.522-.109-1.957.109-3.479-.652a16.138,16.138,0,0,1-3.7-2.281c.435-.434,1.2-.434,1.848-.652a1.8,1.8,0,0,0,1.413-.869c.217-.76-.543-1.412-1.3-1.629-1.522-.434-3.044-.109-4.566-.109-2.283,0-5.979-1.629-7.5.326a31.789,31.789,0,0,0-2.066,4.344l3.914,3.258A8.11,8.11,0,0,0,644.562,343.9Z" transform="translate(-90.935 143.559)"/>
      <path id="Path_1001" data-name="Path 1001" class="cls-19" d="M603.006,286.757c1.3-1.955,2.718-3.8,4.131-5.756,3.153-4.127,7.392-9.883,13.045-8.688,6.414,1.3,7.175,7.711,5.653,12.815-1.631,5.865-13.806,21.83-15.545,27.694,0,0,23.807,15.856,38.048,25.414-.978,1.955-1.631,5.865-3.8,7.059-4.892,2.715-21.416-6.082-25.982-8.037a124.172,124.172,0,0,1-30-18.137,4.7,4.7,0,0,1-1.739-2.172c-.326-1.086.217-2.281.652-3.367A193.551,193.551,0,0,1,603.006,286.757Z" transform="translate(-95.472 138.254)"/>
      <g id="XMLID_15_" transform="translate(728.435 333.918)">
        <path id="Path_936" data-name="Path 936" class="cls-20" d="M1008,225.286l.652-10.969,4.674-.217,1.2,7.494,2.283-1.195-1.739,9.449-4.892.977Z" transform="translate(-1008 -214.1)"/>
      </g>
      <g id="XMLID_14_" transform="translate(728.218 344.344)">
        <path id="Path_937" data-name="Path 937" class="cls-8" d="M1069.547,268.119l-35-3.041L1017.366,223.7l-9.566,3.15,9.023,57.126,54.681,9.883Z" transform="translate(-1007.8 -223.7)"/>
      </g>
      <g id="XMLID_12_" transform="translate(735.393 497.477)">
        <path id="Path_938" data-name="Path 938" class="cls-21" d="M1064.733,371.325v15.856l-21.2,68.855,5.327,71.462-13.262,2.715-21.2-87.427.761-25.631,9.784-52.456Z" transform="translate(-1014.4 -364.7)"/>
      </g>
      <g id="XMLID_11_" transform="translate(768.875 509.641)">
        <path id="Path_939" data-name="Path 939" class="cls-21" d="M1045.2,389.15l21.307,145.639h9.675l6.088-79.39,13.263-79.5Z" transform="translate(-1045.2 -375.9)"/>
      </g>
      <g id="XMLID_10_" transform="translate(748.22 659.841)">
        <path id="Path_940" data-name="Path 940" class="cls-8" d="M1036.31,515.938l-10.11,10.752,2.826,5.43,20.873-9.992-3.805-7.928Z" transform="translate(-1026.2 -514.2)"/>
      </g>
      <g id="XMLID_9_" transform="translate(777.898 666.466)">
        <path id="Path_941" data-name="Path 941" class="cls-8" d="M1066,520.3l-12.5,7.82,1.522,5.973,22.72-4.453-1.848-8.58Z" transform="translate(-1053.5 -520.3)"/>
      </g>
      <g id="XMLID_6_" transform="translate(775.18 326.859)">
        <g id="XMLID_8_" transform="translate(1.179 18.789)">
          <path id="Path_942" data-name="Path 942" class="cls-20" d="M1061.559,224.9c5.87,6.3,16.633,6.408,21.633,13.467,3.261,4.561,3.261,11.078.761,16.291a13.726,13.726,0,0,1-5.109,5.973,13.031,13.031,0,0,1-4.892,1.629,20,20,0,0,1-6.74-.217,37.21,37.21,0,0,0-.544,6.082c-3.914-1.52-9.132-.217-13.154-1.846.87-2.281,3.044-7.385,3.913-9.666a14.427,14.427,0,0,1-2.283-2.824,20.415,20.415,0,0,1-.326-20.961A39.435,39.435,0,0,1,1061.559,224.9Z" transform="translate(-1052.084 -224.9)"/>
        </g>
        <g id="XMLID_7_">
          <path id="Path_943" data-name="Path 943" class="cls-10" d="M1061.545,229.755l21.742,15.53-9.893,18.463,9.566.652,19.459-27.043-27.069-25.848-18.481-3.91-5.87,7.494,4.131,16.942Z" transform="translate(-1051 -207.6)"/>
        </g>
      </g>
      <path id="Path_969-2" data-name="Path 969" class="cls-8" d="M1041.906,262.35l31.635-3.15s25.438,29.541,37.722,72.765c12.393,43.225-15.11,103.826-15.11,103.826S1010.815,418.415,996.9,415.7l27.612-86.449Z" transform="translate(-280.531 123.699)"/>
      <g id="Group_865" data-name="Group 865" transform="translate(92.413 334.86)">
        <g id="XMLID_41_" transform="translate(62.943 0)">
          <g id="XMLID_43_" transform="translate(56.094)">
            <path id="Path_911" data-name="Path 911" class="cls-20" d="M118.2,220.917,116.675,210.6l-4.457.109-.544,7.277-2.174-.869,2.392,8.688,4.675.543Z" transform="translate(-109.5 -210.6)"/>
          </g>
          <g id="XMLID_42_" transform="translate(0 10.426)">
            <path id="Path_912" data-name="Path 912" class="cls-8" d="M57.9,271.027l47.615-9.34,8.262-41.487,9.349,2.172-2.718,57.669L72.9,295.9Z" transform="translate(-57.9 -220.2)"/>
          </g>
        </g>
        <g id="XMLID_20_" transform="translate(5.039 1.336)">
          <g id="XMLID_40_" transform="translate(0 55.355)">
            <path id="Path_913" data-name="Path 913" class="cls-8" d="M34.71,355.44c1.631-8.254,2.935-15.856,3.044-19.983.326-12.381,1.957-53.434,1.957-53.434l7.718-15.748h1.087a12,12,0,0,0-.109-3.475c-13.48.76-27.286,7.82-31.091,20.961a17.3,17.3,0,0,0-.652,3.258c-.544,6.734,1.522,11.729-.435,18.463a170.042,170.042,0,0,0-4.348,17.811c-1.631,8.688-3.153,17.377-4.348,25.957a255.465,255.465,0,0,0-2.5,28.563c0,1.086-.217,4.018-.326,7.494-.217,7.277-.109,17.16,3.044,17.485a3.071,3.071,0,0,0,1.631-.434c4.022-1.955,7.066-4.453,10.654-6.625l.217-38.229Z" transform="translate(-4.636 -262.8)"/>
          </g>
          <g id="XMLID_39_" transform="translate(52.577 56.007)">
            <path id="Path_914" data-name="Path 914" class="cls-8" d="M101.485,394.7c-.761-8.145-1.631-16.291-2.609-24.327-1.957-16.182-4.675-32.364-9.349-48-1.739-5.973-3.8-11.838-5.762-17.811-2.5-7.168-4.892-14.336-7.392-21.5-3.044-8.906-8.262-15.2-17.285-18.354a39.1,39.1,0,0,0-5.109-1.3c0,.217-.109.326-.109.543a4.233,4.233,0,0,1-.87,2.389l5.979.109s16.741,58.647,17.394,68.747c.217,3.8.978,12.272,1.848,21.069l9.132,1.3.435,33.776c.544.109.978.326,1.522.434,2.935.76,5.218,2.824,7.61,4.561C100.4,398.722,101.919,399.59,101.485,394.7Z" transform="translate(-53 -263.4)"/>
          </g>
          <g id="XMLID_38_" transform="translate(54.099 178.728)">
            <path id="Path_915" data-name="Path 915" class="cls-8" d="M62.988,376.509c-.652,0-1.3.109-2.065.109L54.4,439.282l7.066,91.228h.109V529.1H73.316L88.209,427.553,87.665,381.5c-7.066-2.063-14.785-5.213-22.177-5.1C64.51,376.4,63.749,376.509,62.988,376.509Z" transform="translate(-54.4 -376.398)"/>
          </g>
          <g id="XMLID_37_" transform="translate(62.578 148.755)">
            <path id="Path_916" data-name="Path 916" class="cls-8" d="M77.311,348.8c1.413,14.01,2.935,29.106,2.935,29.106s-7.392.217-18.046.978h2.392c7.392-.109,15.111,3.041,22.177,5.1l-.435-33.776Z" transform="translate(-62.2 -348.8)"/>
          </g>
          <g id="XMLID_36_" transform="translate(61.165 331.537)">
            <path id="Path_917" data-name="Path 917" class="cls-10" d="M60.9,518.4v4.887l12.61,6.3,6.2-6.3-6.2-6.19h-.87l-.217,1.3Z" transform="translate(-60.9 -517.1)"/>
          </g>
          <g id="XMLID_35_" transform="translate(61.165 331.537)">
            <path id="Path_918" data-name="Path 918" class="cls-10" d="M60.9,518.4H72.423l.217-1.3H60.9Z" transform="translate(-60.9 -517.1)"/>
          </g>
          <g id="XMLID_34_" transform="translate(15.398 180.577)">
            <path id="Path_919" data-name="Path 919" class="cls-8" d="M47.717,378.1c-.326,0-.544.109-.87.109A106.325,106.325,0,0,1,31.41,380.6a45.99,45.99,0,0,0-8.7,3.15c-1.413.652-2.609,1.412-3.914,2.172v7.928L33.041,529.061H44.673v1.412h.109l12.828-90.685v-.543l-.326-3.8Z" transform="translate(-18.8 -378.1)"/>
          </g>
          <g id="XMLID_33_" transform="translate(15.289 147.995)">
            <path id="Path_920" data-name="Path 920" class="cls-8" d="M31.419,383.179c-5.109.217-5.762-.652-5.762-.652s4.566-18.354,7.827-34.428l-14.567,2.172L18.7,388.5a33.335,33.335,0,0,1,3.914-2.172A42.581,42.581,0,0,1,31.419,383.179Z" transform="translate(-18.7 -348.1)"/>
          </g>
          <g id="XMLID_32_" transform="translate(44.315 179.056)">
            <path id="Path_921" data-name="Path 921" class="cls-8" d="M45.4,378.22l9.566,57.343.326,3.8L61.815,376.7C56.815,377.026,51.162,377.569,45.4,378.22Z" transform="translate(-45.4 -376.7)"/>
          </g>
          <g id="XMLID_31_" transform="translate(22.356 331.537)">
            <path id="Path_922" data-name="Path 922" class="cls-10" d="M32.375,517.1h-.87L25.2,523.29l6.305,6.3,12.5-6.3V518.4H32.484Z" transform="translate(-25.2 -517.1)"/>
          </g>
          <g id="XMLID_30_" transform="translate(29.53 331.537)">
            <path id="Path_923" data-name="Path 923" class="cls-10" d="M31.8,517.1l.109,1.3H43.432v-1.3Z" transform="translate(-31.8 -517.1)"/>
          </g>
          <g id="Group_800" data-name="Group 800" transform="translate(22.247 58.722)">
            <path id="Path_924" data-name="Path 924" class="cls-1" d="M80.542,355.933c-.87-8.8-1.631-17.268-1.848-21.069-.652-10.1-17.394-68.747-17.394-68.747l-5.979-.109-.217.217c-.217.109-.435.326-.652.326a3.583,3.583,0,0,1-1.522,0l-5.87-.652H45.646l-7.718,15.639s-1.631,41.053-1.957,53.434c-.109,4.127-1.413,11.729-3.044,19.983-3.261,15.965-7.827,34.428-7.827,34.428s.652.977,5.762.652A106.312,106.312,0,0,0,46.3,387.646c.326,0,.544-.109.87-.109,5.87-.652,11.415-1.195,16.415-1.629.652,0,1.3-.109,2.065-.109,10.654-.76,18.046-.978,18.046-.978S81.955,369.943,80.542,355.933Z" transform="translate(-25.1 -265.9)"/>
          </g>
          <g id="XMLID_29_" transform="translate(35.183 26.113)">
            <path id="Path_925" data-name="Path 925" class="cls-20" d="M55.263,265.66c.761-3.258,4.457-4.779,6.414-7.711a25.56,25.56,0,0,0,3.914-11.186v-.217c-.326.109-.544.326-.87.434-.435-1.629.326-3.15.761-4.779a4.866,4.866,0,0,0,.109-1.195,29.276,29.276,0,0,1-7.718-2.5c-4.348-1.846-12.719-3.91-17.285-1.629-3.587,1.738-2.5,7.385-2.283,10.969a11.371,11.371,0,0,1-.109,2.715,9.144,9.144,0,0,1-1.2,2.281,11.305,11.305,0,0,0,2.065,3.91c2.826,3.258,5.762,4.779,6.523,8.363A46.9,46.9,0,0,1,55.263,265.66Z" transform="translate(-37 -235.875)"/>
          </g>
          <g id="XMLID_28_" transform="translate(43.771 55.381)">
            <path id="Path_926" data-name="Path 926" class="cls-20" d="M45.009,266.273h.326l8.262.109a4.552,4.552,0,0,0,.87-2.389,4.7,4.7,0,0,1,.109-.543,41.053,41.053,0,0,0-9.675-.543A8.443,8.443,0,0,1,45.009,266.273Z" transform="translate(-44.9 -262.823)"/>
          </g>
          <g id="XMLID_27_" transform="translate(44.206 58.939)">
            <path id="Path_927" data-name="Path 927" class="cls-20" d="M51.17,266.752a3.585,3.585,0,0,0,1.522,0l.652-.326.217-.217L45.3,266.1C47.257,266.209,49.214,266.534,51.17,266.752Z" transform="translate(-45.3 -266.1)"/>
          </g>
          <g id="XMLID_26_" transform="translate(63.774 31.245)">
            <path id="Path_928" data-name="Path 928" class="cls-10" d="M63.409,240.6a15.81,15.81,0,0,1-.109,5.539,10.057,10.057,0,0,0,4.131-5.43A12.588,12.588,0,0,1,63.409,240.6Z" transform="translate(-63.3 -240.6)"/>
          </g>
          <g id="XMLID_25_" transform="translate(62.716 31.245)">
            <path id="Path_929" data-name="Path 929" class="cls-10" d="M63.493,240.6h-.217a4.069,4.069,0,0,1-.109,1.195c-.326,1.629-1.087,3.15-.761,4.779a2.186,2.186,0,0,0,.87-.434A13.537,13.537,0,0,0,63.493,240.6Z" transform="translate(-62.327 -240.6)"/>
          </g>
          <g id="XMLID_24_" transform="translate(24.96)">
            <path id="Path_930" data-name="Path 930" class="cls-10" d="M37.6,244.053a10.7,10.7,0,0,1,.761-4.127c1.087-2.281,3.479-3.475,5.87-4.236,5.979-1.846,12.936-1.412,18.263,1.955a9.192,9.192,0,0,1,3.479,3.584,5.294,5.294,0,0,1,.326.76c-.326-1.738-1.2-3.475-.87-4.67.435-1.846,2.935-2.172,4.24-1.195a4.525,4.525,0,0,1,1.631,3.258,8.562,8.562,0,0,1-.652,3.693.379.379,0,0,1-.109.217,8.644,8.644,0,0,0,2.392-.652c3.8-1.629,6.849-8.254,6.74-12.381a5.731,5.731,0,0,0-2.5-4.779c-1.522-.977-3.153-1.846-4.022-3.367-.652-1.195-.761-2.715-1.522-4.018-1.2-2.172-3.914-2.824-6.305-3.584-5.87-1.846-9.023-4.018-15.219-1.629-4.457,1.738-10.11,1.955-14.241,4.453a14.587,14.587,0,0,0-4.348,4.561c-4.131,6.516-5.109,15.639-2.392,22.373a38.59,38.59,0,0,0,2.174,4.236c1.631,2.715,3.37,5.973,6.305,7.277a2.044,2.044,0,0,1,.217-.869C36.841,251.547,37.493,247.637,37.6,244.053Z" transform="translate(-27.595 -211.831)"/>
          </g>
          <g id="XMLID_23_" transform="translate(34.544 22.731)">
            <path id="Path_931" data-name="Path 931" class="cls-10" d="M38.247,248.117c-.217-3.584-1.3-9.123,2.283-10.969,4.457-2.281,12.936-.217,17.285,1.629a40.28,40.28,0,0,0,7.718,2.5c0-.326-.109-.76-.109-1.086a5.292,5.292,0,0,1-.326-.76,9.984,9.984,0,0,0-3.479-3.584,21.938,21.938,0,0,0-18.263-1.955c-2.392.76-4.783,1.955-5.87,4.236a13.207,13.207,0,0,0-.761,4.127c-.109,3.584-.761,7.494.217,10.86a15.1,15.1,0,0,0,1.2-2.281A7.614,7.614,0,0,0,38.247,248.117Z" transform="translate(-36.412 -232.761)"/>
          </g>
          <g id="XMLID_22_" transform="translate(62.615 23.647)">
            <path id="Path_932" data-name="Path 932" class="cls-10" d="M68.176,237.4a4.525,4.525,0,0,0-1.631-3.258c-1.413-.977-3.914-.652-4.24,1.195-.326,1.3.544,2.932.87,4.67.109.326.217.76.326,1.086a16.979,16.979,0,0,0,4.022.217.379.379,0,0,1,.109-.217A8.256,8.256,0,0,0,68.176,237.4Z" transform="translate(-62.234 -233.604)"/>
          </g>
          <g id="XMLID_21_" transform="translate(63.557 30.159)">
            <path id="Path_933" data-name="Path 933" class="cls-10" d="M63.1,239.6a3.691,3.691,0,0,1,.109,1.086h.217C63.317,240.36,63.209,239.926,63.1,239.6Z" transform="translate(-63.1 -239.6)"/>
          </g>
        </g>
        <g id="XMLID_19_" transform="translate(55.058 58.573)">
          <ellipse id="Ellipse_43" data-name="Ellipse 43" class="cls-22" cx="42.258" cy="42.295" rx="42.258" ry="42.295" transform="matrix(0.226, -0.974, 0.974, 0.226, 0, 82.336)"/>
        </g>
        <g id="XMLID_16_" transform="translate(0 62.231)">
          <g id="XMLID_18_" transform="translate(54.138 52.348)">
            <path id="Path_934" data-name="Path 934" class="cls-20" d="M49.8,321.856l6.631-.434,3.914-4.453,1.3.326-.326,1.629,4.24-2.824,4.131.434,2.718,4.779-.87,5.647-5,2.172-6.523-.76-9.132.977Z" transform="translate(-49.8 -316.1)"/>
          </g>
          <g id="XMLID_17_">
            <path id="Path_935" data-name="Path 935" class="cls-8" d="M57.616,322.854l-36.418.869L28.591,267.9,3.7,292.336,0,343.923,13.371,351.2,63.16,335.344Z" transform="translate(0 -267.9)"/>
          </g>
        </g>
      </g>
      <path id="Path_970-2" data-name="Path 970" class="cls-23" d="M-14706.672-4509.642l187.165,150.965,147.34-252.1,207.632,192.01-354.972,60.094" transform="translate(14846.365 4689.684)"/>
      <path id="Path_971-2" data-name="Path 971" class="cls-23" d="M-14656.516-4517.574l298.313-95.262" transform="translate(14835.899 4690.114)"/>
      <g id="XMLID_46_" transform="translate(267.008 270.789)">
        <path id="Path_910" data-name="Path 910" class="cls-24" d="M350.6,167.258A60.075,60.075,0,0,1,410.717,107.2c33.156,0,63.16,26.825,63.16,60.058,0,33.124-30,60.058-63.16,60.058A60.075,60.075,0,0,1,350.6,167.258Z" transform="translate(-350.6 -107.2)"/>
      </g>
      <g id="Group_866" data-name="Group 866" transform="translate(698.975 354.879)">
        <g id="XMLID_4_">
          <path id="Path_944" data-name="Path 944" class="cls-20" d="M985.031,246,980.9,235.355l4.457-1.955,4.457,6.625,1.631-1.846,2.392,9.449-4.349,2.715Z" transform="translate(-980.9 -233.4)"/>
        </g>
        <g id="XMLID_3_" transform="translate(4.892 10.752)">
          <path id="Path_945" data-name="Path 945" class="cls-8" d="M1079,279.574l-46.854,4.344L993.771,243.3l-8.371,5.756,30.874,53.651L1079,313.133Z" transform="translate(-985.4 -243.3)"/>
        </g>
      </g>
      <g id="XMLID_45_" transform="translate(592.748 172.58)">
        <ellipse id="Ellipse_41" data-name="Ellipse 41" class="cls-25" cx="89.585" cy="89.499" rx="89.585" ry="89.499" transform="translate(0 0)"/>
      </g>
      <g id="XMLID_47_" transform="translate(395.069 0)">
        <ellipse id="Ellipse_40" data-name="Ellipse 40" class="cls-26" cx="86.431" cy="86.348" rx="86.431" ry="86.348"/>
      </g>
      <g id="XMLID_44_" transform="translate(0 61.165)">
        <circle id="Ellipse_42" data-name="Ellipse 42" class="cls-27" cx="76.19" cy="76.19" r="76.19" transform="translate(0 107.748) rotate(-45)"/>
      </g>
      <g id="Group_867" data-name="Group 867" transform="translate(295.827 298.218)">
        <line id="Line_47" data-name="Line 47" class="cls-28" x2="4.464" transform="translate(22.322 20.814)"/>
        <line id="Line_48" data-name="Line 48" class="cls-28" x2="16.369" transform="translate(32.739 20.814)"/>
        <line id="Line_49" data-name="Line 49" class="cls-28" x2="2.976" transform="translate(53.573 20.814)"/>
        <line id="Line_50" data-name="Line 50" class="cls-28" x2="5.953" transform="translate(22.322 26.76)"/>
        <line id="Line_51" data-name="Line 51" class="cls-28" x2="4.464" transform="translate(34.227 26.76)"/>
        <line id="Line_52" data-name="Line 52" class="cls-28" x2="13.393" transform="translate(43.156 26.76)"/>
        <line id="Line_53" data-name="Line 53" class="cls-28" x2="11.905" transform="translate(22.322 32.707)"/>
        <line id="Line_54" data-name="Line 54" class="cls-28" x2="1.488" transform="translate(40.179 32.707)"/>
        <line id="Line_55" data-name="Line 55" class="cls-28" x2="1.488" transform="translate(46.132 32.707)"/>
        <line id="Line_56" data-name="Line 56" class="cls-28" x2="4.464" transform="translate(22.322 38.654)"/>
        <line id="Line_57" data-name="Line 57" class="cls-28" x2="2.976" transform="translate(32.739 38.654)"/>
        <line id="Line_58" data-name="Line 58" class="cls-28" x2="13.393" transform="translate(40.179 38.654)"/>
        <line id="Line_59" data-name="Line 59" class="cls-28" x2="1.488" transform="translate(22.322 44.601)"/>
        <line id="Line_60" data-name="Line 60" class="cls-28" x2="8.929" transform="translate(29.762 44.601)"/>
        <line id="Line_61" data-name="Line 61" class="cls-28" x2="14.881" transform="translate(43.156 44.601)"/>
        <line id="Line_62" data-name="Line 62" class="cls-28" x2="13.393" transform="translate(22.322 50.548)"/>
        <line id="Line_63" data-name="Line 63" class="cls-28" x2="8.929" transform="translate(41.668 50.548)"/>
        <line id="Line_64" data-name="Line 64" class="cls-28" x2="2.976" transform="translate(55.061 50.548)"/>
        <line id="Line_65" data-name="Line 65" class="cls-28" x2="1.488" transform="translate(22.322 56.494)"/>
        <line id="Line_66" data-name="Line 66" class="cls-28" x2="13.393" transform="translate(29.762 56.494)"/>
        <path id="Path_1016" data-name="Path 1016" class="cls-29" d="M64.5,67.414H4.976A2.984,2.984,0,0,1,2,64.441V4.973A2.984,2.984,0,0,1,4.976,2H64.5a2.984,2.984,0,0,1,2.976,2.973V64.441A2.984,2.984,0,0,1,64.5,67.414Z" transform="translate(-2 -2)"/>
        <ellipse id="Ellipse_47" data-name="Ellipse 47" class="cls-29" cx="0.744" cy="0.743" rx="0.744" ry="0.743" transform="translate(5.209 5.203)"/>
        <ellipse id="Ellipse_48" data-name="Ellipse 48" class="cls-29" cx="0.744" cy="0.743" rx="0.744" ry="0.743" transform="translate(11.161 5.203)"/>
        <ellipse id="Ellipse_49" data-name="Ellipse 49" class="cls-29" cx="0.744" cy="0.743" rx="0.744" ry="0.743" transform="translate(17.113 5.203)"/>
        <line id="Line_67" data-name="Line 67" class="cls-29" x2="65.478" transform="translate(0 11.894)"/>
        <line id="Line_68" data-name="Line 68" class="cls-29" y2="53.521" transform="translate(14.881 11.894)"/>
        <line id="Line_69" data-name="Line 69" class="cls-28" x2="2.976" transform="translate(5.952 20.814)"/>
        <line id="Line_70" data-name="Line 70" class="cls-28" x2="2.976" transform="translate(5.952 28.247)"/>
        <line id="Line_71" data-name="Line 71" class="cls-28" x2="2.976" transform="translate(5.952 35.681)"/>
        <line id="Line_72" data-name="Line 72" class="cls-28" x2="2.976" transform="translate(5.952 43.114)"/>
        <line id="Line_73" data-name="Line 73" class="cls-28" x2="2.976" transform="translate(5.952 50.548)"/>
        <line id="Line_74" data-name="Line 74" class="cls-28" x2="2.976" transform="translate(5.952 57.981)"/>
      </g>
      <g id="Group_868" data-name="Group 868" transform="translate(179.384 423.807)">
        <path id="Path_1002" data-name="Path 1002" class="cls-30" d="M38.7,43.778H7.685A3.844,3.844,0,0,1,3.841,40.06L3,14H43.383l-.841,26.06A3.844,3.844,0,0,1,38.7,43.778Z" transform="translate(-3 -3.434)"/>
        <path id="Path_1003" data-name="Path 1003" class="cls-30" d="M41.576,11.645v-.961A2.883,2.883,0,0,0,38.691,7.8h-12.5L20.423,3H8.885A2.883,2.883,0,0,0,6,5.882v5.763" transform="translate(-3.115 -3)"/>
        <rect id="Rectangle_304" data-name="Rectangle 304" class="cls-31" width="18.269" height="5.763" transform="translate(15.384 28.817)"/>
      </g>
      <g id="Group_869" data-name="Group 869" transform="translate(70.097 138.169)">
        <path id="Path_1004" data-name="Path 1004" class="cls-31" d="M69.851,52.262H14.142A11.169,11.169,0,0,1,3,41.131H3A11.169,11.169,0,0,1,14.142,30H69.851A11.169,11.169,0,0,1,80.992,41.131h0A11.169,11.169,0,0,1,69.851,52.262Z" transform="translate(-3 14.524)"/>
        <ellipse id="Ellipse_44" data-name="Ellipse 44" class="cls-31" cx="3.714" cy="3.71" rx="3.714" ry="3.71" transform="translate(57.566 51.945)"/>
        <path id="Path_1005" data-name="Path 1005" class="cls-31" d="M69.851,40.262H14.142A11.169,11.169,0,0,1,3,29.131H3A11.169,11.169,0,0,1,14.142,18H69.851A11.169,11.169,0,0,1,80.992,29.131h0A11.169,11.169,0,0,1,69.851,40.262Z" transform="translate(-3 4.262)"/>
        <ellipse id="Ellipse_45" data-name="Ellipse 45" class="cls-31" cx="3.714" cy="3.71" rx="3.714" ry="3.71" transform="translate(57.566 29.683)"/>
        <path id="Path_1006" data-name="Path 1006" class="cls-31" d="M69.851,28.262H14.142A11.169,11.169,0,0,1,3,17.131H3A11.169,11.169,0,0,1,14.142,6H69.851A11.169,11.169,0,0,1,80.992,17.131h0A11.169,11.169,0,0,1,69.851,28.262Z" transform="translate(-3 -6)"/>
        <ellipse id="Ellipse_46" data-name="Ellipse 46" class="cls-31" cx="3.714" cy="3.71" rx="3.714" ry="3.71" transform="translate(57.566 7.421)"/>
      </g>
      <g id="Group_871" data-name="Group 871" transform="translate(648.221 225.274)">
        <path id="Path_1009" data-name="Path 1009" class="cls-29" d="M8,42.1V37.242A3.244,3.244,0,0,1,11.245,34H56.677a3.244,3.244,0,0,1,3.245,3.242V42.1" transform="translate(0.112 16.25)"/>
        <line id="Line_45" data-name="Line 45" class="cls-29" y2="17.831" transform="translate(34.074 40.525)"/>
        <path id="Path_1010" data-name="Path 1010" class="cls-29" d="M31.98,53.589H22.245A3.244,3.244,0,0,1,19,50.347v-8.1A3.244,3.244,0,0,1,22.245,39H31.98a3.244,3.244,0,0,1,3.245,3.242v8.1A3.244,3.244,0,0,1,31.98,53.589Z" transform="translate(6.961 19.355)"/>
        <path id="Path_1011" data-name="Path 1011" class="cls-29" d="M47.98,53.589H38.245A3.244,3.244,0,0,1,35,50.347v-8.1A3.244,3.244,0,0,1,38.245,39H47.98a3.244,3.244,0,0,1,3.245,3.242v8.1A3.244,3.244,0,0,1,47.98,53.589Z" transform="translate(16.921 19.355)"/>
        <path id="Path_1012" data-name="Path 1012" class="cls-29" d="M15.98,53.589H6.245A3.244,3.244,0,0,1,3,50.347v-8.1A3.244,3.244,0,0,1,6.245,39H15.98a3.244,3.244,0,0,1,3.245,3.242v8.1A3.244,3.244,0,0,1,15.98,53.589Z" transform="translate(-3 19.355)"/>
        <rect id="Rectangle_305" data-name="Rectangle 305" class="cls-31" width="48.677" height="27.557" transform="translate(9.736 6.484)"/>
        <path id="Path_1013" data-name="Path 1013" class="cls-31" d="M63.412,43.525H8.245A3.244,3.244,0,0,1,5,40.283V6.242A3.244,3.244,0,0,1,8.245,3H63.412a3.244,3.244,0,0,1,3.245,3.242V40.283A3.244,3.244,0,0,1,63.412,43.525Z" transform="translate(-1.755 -3)"/>
      </g>
      <g id="Group_872" data-name="Group 872" transform="translate(442.985 48.362)">
        <path id="Path_1019" data-name="Path 1019" class="cls-29" d="M75.138,78.547H5.483A3.491,3.491,0,0,1,2,75.067V5.479A3.491,3.491,0,0,1,5.483,2H75.138a3.491,3.491,0,0,1,3.483,3.479V75.067A3.491,3.491,0,0,1,75.138,78.547Z" transform="translate(-2 -2)"/>
        <ellipse id="Ellipse_54" data-name="Ellipse 54" class="cls-29" cx="0.871" cy="0.87" rx="0.871" ry="0.87" transform="translate(6.095 6.089)"/>
        <ellipse id="Ellipse_55" data-name="Ellipse 55" class="cls-29" cx="0.871" cy="0.87" rx="0.871" ry="0.87" transform="translate(13.06 6.089)"/>
        <ellipse id="Ellipse_56" data-name="Ellipse 56" class="cls-29" cx="0.871" cy="0.87" rx="0.871" ry="0.87" transform="translate(20.026 6.089)"/>
        <line id="Line_76" data-name="Line 76" class="cls-29" x2="76.621" transform="translate(0 13.918)"/>
        <path id="Path_1020" data-name="Path 1020" class="cls-29" d="M41.6,49.054a10.484,10.484,0,0,0,6.791-18.441,10.689,10.689,0,0,0,.174-2.436,12.19,12.19,0,0,0-24.379,0v.174a5.93,5.93,0,0,0-1.741-.174,10.438,10.438,0,1,0,0,20.876" transform="translate(5.414 8.356)"/>
        <line id="Line_77" data-name="Line 77" class="cls-29" y1="19.137" transform="translate(38.311 48.712)"/>
        <path id="Path_1021" data-name="Path 1021" class="cls-29" d="M33.931,34.219,26.966,29,20,34.219" transform="translate(11.345 17.972)"/>
      </g>
    </g>
  </g>
</svg>
